<svg xmlns="http://www.w3.org/2000/svg" width="80" height="70" viewBox="0 0 80 70"><title>heart</title><g id="OBJECTS"><path d="M41.12,67.88c-7.55-4.34-14.17-10-20.47-16-6-5.7-11.69-12-14.9-19.79-2.49-6-6-27.81,6.74-24.74C20.4,9.28,27.2,18.22,30.64,25c.74,1.45,2.65.57,2.79-.76C34.47,14.52,47.32,6,56.08,4c11.29-2.63,20.37,4.92,20.28,16.4-.07,10-7,18.56-13.38,25.61a134.76,134.76,0,0,1-22.56,19.9c-2,1.42-.09,4.77,2,3.33A129,129,0,0,0,70.89,42.49c6.75-8.8,11.82-20.17,7.26-31.15C73.89,1.11,62.83-2,52.82,1.54,43.33,4.92,31.5,13.45,30.44,24.25l2.79-.76C29.15,15.63,21.06,5.67,11.71,4.09,2.53,2.54-.08,14.07.12,20.94c.29,10.33,5.58,19.45,12.33,27C20.12,56.42,29.6,64.8,40,69.76c1.25.59,2.33-1.17,1.1-1.88Z"/><path d="M34,44.67a10.63,10.63,0,0,0,1.36,7.09c1,1.79,2.73,4.55,5,4.67s3.05-2.65,3.48-4.46,1.42-5.57-.53-6.72a.71.71,0,0,0-.83.1c-1.09,1-.56,2.55-.69,3.92-.1.93-.49,4.39-1.5,4.55s-2.73-3.12-3.13-3.89a36.83,36.83,0,0,1-1.85-5.26c-.2-.6-1.18-.71-1.33,0Z"/><path d="M20.6,37.76a3.6,3.6,0,0,0,.38.88,2.87,2.87,0,0,0,3.86,1A3.11,3.11,0,0,0,26.13,38a2.83,2.83,0,0,0-.72-2.74l.31.38a2.81,2.81,0,0,0-5.12,2.16Z"/><path d="M51,37.28A2.93,2.93,0,1,0,48,34.35,3,3,0,0,0,51,37.28Z"/></g></svg>
