<svg xmlns="http://www.w3.org/2000/svg" width="37mm" height="37mm" viewBox="0 0 104.88 104.88"><defs><style>.cls-1{fill:#303030;}</style></defs><title>arrow</title><g id="OBJECTS"><path class="cls-1" d="M75.29.34a17.9,17.9,0,0,0-3.94,0,15.88,15.88,0,0,0-3.9,1,14.28,14.28,0,0,0-6.21,4.58A9.57,9.57,0,0,0,59.52,9.3a7.57,7.57,0,0,0-.19,1.84,4.28,4.28,0,0,0,.18,1.07,5.68,5.68,0,0,0,.37.79l.18.38a1.55,1.55,0,0,0,.75.86,1.46,1.46,0,0,0,1.14.08,1.49,1.49,0,0,0,.86-.74,1.42,1.42,0,0,0,.08-1.14,13.11,13.11,0,0,1-.54-1.21c0-.16,0-.32,0-.48a7.21,7.21,0,0,1,.24-1.12,7.4,7.4,0,0,1,.6-1.15,11.68,11.68,0,0,1,1.65-1.86,12.66,12.66,0,0,1,2.34-1.55,13.71,13.71,0,0,1,3-1,15.86,15.86,0,0,1,3.44-.18,17.54,17.54,0,0,1,3.79.81A18.22,18.22,0,0,1,81,6.49,21.7,21.7,0,0,1,84.62,9.8a31.43,31.43,0,0,1,3,4.24c1,1.58,1.87,3.19,2.69,4.84,1,2.11,1.93,4.27,2.74,6.46a42.24,42.24,0,0,1,1.81,6.42c.21,1.21.38,2.42.47,3.64a27.61,27.61,0,0,1,0,3.75,27.32,27.32,0,0,1-1.27,6.2,28.1,28.1,0,0,1-2.87,5.72,31.9,31.9,0,0,1-4.91,5.47,38.85,38.85,0,0,1-6.35,4.36,62,62,0,0,0-9.18-12.45,55.56,55.56,0,0,0-7.86-6.75c-1.52-1.09-3.09-2.11-4.68-3.1a50.24,50.24,0,0,0-4.41-2.48A42.25,42.25,0,0,0,44,32.6a37.13,37.13,0,0,0-5.36-.73,30.46,30.46,0,0,0-4.87,0,31.47,31.47,0,0,0-5.46.93,26.84,26.84,0,0,0-4.78,1.76,28.45,28.45,0,0,0-4.86,2.84,20.93,20.93,0,0,0-3.86,3.72,19.77,19.77,0,0,0-1.59,2.35,15.11,15.11,0,0,0-1.16,2.75,14.1,14.1,0,0,0-.69,5.2,16.75,16.75,0,0,0,.5,2.9,12.41,12.41,0,0,0,.81,2.31,18.74,18.74,0,0,0,1.5,2.66,26.48,26.48,0,0,0,2.09,2.51A23.72,23.72,0,0,0,20,65.07a44.47,44.47,0,0,0,4.68,3,52.27,52.27,0,0,0,9.63,4,49.87,49.87,0,0,0,9.61,2,62.18,62.18,0,0,0,10.57.07,76.16,76.16,0,0,0,10.73-1.53,66.17,66.17,0,0,0,10-3c.86-.33,1.71-.68,2.54-1a44.11,44.11,0,0,1,3,9.09,28.31,28.31,0,0,1,.47,6.69,20.46,20.46,0,0,1-.84,4.16,20.56,20.56,0,0,1-1.85,3.73,17,17,0,0,1-2.3,2.64,15.64,15.64,0,0,1-2.71,1.78,19.83,19.83,0,0,1-4,1.33,21.43,21.43,0,0,1-4.8.26,33.5,33.5,0,0,1-7.51-1.71c-2.64-1-5.25-2-7.88-3-2.35-.88-4.75-1.61-7.17-2.3-4.47-1.26-9-2.38-13.46-3.58l-7.72-2-1-.27,3.55-1c1.13-.33,2.25-.72,3.36-1.11.54-.19,1.08-.39,1.62-.61l1.06-.43c.35-.14.68-.31,1-.48q.24-.12.48-.27a3.29,3.29,0,0,0,.67-.62,1.71,1.71,0,0,0,.34-1.69,1.69,1.69,0,0,0-.5-.76l-.37-.25a1.82,1.82,0,0,0-.86-.18,7,7,0,0,0-1.75.27l-.83.17-1.77.39-1.62.38c-.62.16-1.25.29-1.86.46-1.07.31-2.14.59-3.2.94-1.26.4-2.51.81-3.76,1.23l-1,.34c-1.56.35-3.13.72-4.7,1l-.9.17.2,0a15.1,15.1,0,0,0-1.85.45,4.18,4.18,0,0,0-1.87,1.15,3.44,3.44,0,0,0-.84,2.58,5.19,5.19,0,0,0,.76,2.14,6.47,6.47,0,0,0,.75,1A18,18,0,0,0,8,92.84c.33.29.66.55,1,.81s.94.73,1.42,1.08c1.91,1.39,3.83,2.77,5.69,4.23q1.47,1.14,2.91,2.31c1,.82,2.09,1.6,3.1,2.44a3.6,3.6,0,0,0,2.51.87,3.51,3.51,0,0,0,3.34-3.7l-.18-.93a3.42,3.42,0,0,0-1-1.54c-.46-.49-.94-1-1.44-1.43s-.88-.73-1.34-1.07c-1-.74-2-1.44-3-2.15-1.46-1-2.93-2-4.41-3,1.86.46,3.71,1,5.56,1.48Q28.87,94.07,35.59,96c1.85.52,3.7,1.07,5.54,1.63,1.45.45,2.89.94,4.32,1.44l6.9,2.7c.42.17.85.32,1.28.47,1,.38,2.08.74,3.14,1.07a32,32,0,0,0,4.82,1.1c1,.15,2,.21,3,.27a22,22,0,0,0,2.57,0,19.47,19.47,0,0,0,2.4-.32,26.75,26.75,0,0,0,3.21-.76,18.09,18.09,0,0,0,2.25-.88,23.72,23.72,0,0,0,2.85-1.54,19.07,19.07,0,0,0,2.34-1.88A16,16,0,0,0,82,97.33a21.46,21.46,0,0,0,2.82-4.65,22.48,22.48,0,0,0,1.61-5.11,27.66,27.66,0,0,0,.31-2.87,21.54,21.54,0,0,0,.05-2.54,32.71,32.71,0,0,0-.7-5.5,45.62,45.62,0,0,0-3.21-9.92c-.09-.22-.19-.43-.29-.65.8-.45,1.58-.92,2.35-1.41a38.48,38.48,0,0,0,8-6.81,30.52,30.52,0,0,0,5.39-8.64,29.33,29.33,0,0,0,1.57-5,33.81,33.81,0,0,0,.62-5.22,34.83,34.83,0,0,0-1.23-10.15,52.7,52.7,0,0,0-3.62-9.55c-.69-1.44-1.41-2.86-2.19-4.26a56.39,56.39,0,0,0-3.25-5.15A24.54,24.54,0,0,0,82.5,2.68a20,20,0,0,0-3.65-1.57A17.25,17.25,0,0,0,75.29.34M63.06,66.77a73.62,73.62,0,0,1-8.5,1,65.16,65.16,0,0,1-8.5.05A49.83,49.83,0,0,1,34.5,65.36a46.11,46.11,0,0,1-9.64-4.73,26.19,26.19,0,0,1-4.37-3.77,15.45,15.45,0,0,1-1.8-2.6,13.22,13.22,0,0,1-.77-2.3,11.42,11.42,0,0,1-.12-2,12.67,12.67,0,0,1,.47-2.2,13,13,0,0,1,1-2A17.5,17.5,0,0,1,21.69,43a23.57,23.57,0,0,1,4.44-2.87,27.22,27.22,0,0,1,5.89-2,30.74,30.74,0,0,1,7.23-.37A33.82,33.82,0,0,1,47,39.42,45.66,45.66,0,0,1,52.87,42a64.12,64.12,0,0,1,5.63,3.39A54.58,54.58,0,0,1,68.41,54,59.93,59.93,0,0,1,75,63.25a64.65,64.65,0,0,1-11.94,3.52"/></g></svg>
