<svg xmlns="http://www.w3.org/2000/svg" width="41.29mm" height="19.83mm" viewBox="0 0 117.05 56.2"><defs><style>.cls-1{fill:#fff;}</style></defs><title>arrow_3</title><g id="OBJECTS"><path class="cls-1" d="M27,.14a4.32,4.32,0,0,0-.69.32l-.44.25-.69.44c-.46.3-.91.61-1.36.92C22.87,2.7,22,3.35,21,4c-.4.29-.81.57-1.21.87-.61.45-1.2.91-1.79,1.38-.84.67-1.65,1.39-2.47,2.09l-2.7,2.33c-.86.73-1.74,1.45-2.61,2.18s-1.76,1.48-2.62,2.24S6,16.71,5.19,17.56c-.38.41-.71.87-1.06,1.3s-.75,1-1.13,1.51-.62.83-.93,1.26A15.36,15.36,0,0,0,.48,24,4.91,4.91,0,0,0,0,25.53a3.26,3.26,0,0,0,0,.7,3.14,3.14,0,0,0,.34,1.23,3.46,3.46,0,0,0,.59.79c.34.37.71.72,1.08,1.06.83.76,1.67,1.5,2.54,2.22a25.73,25.73,0,0,0,2.93,2c.89.54,1.74,1.14,2.6,1.73s1.89,1.27,2.85,1.88c1.84,1.17,3.69,2.32,5.52,3.52,2,1.3,4,2.53,6.06,3.76s3.91,2.34,5.91,3.44c.47.26,1,.49,1.45.73.22.12.46.21.69.32a7.42,7.42,0,0,0,1.53.58,1.53,1.53,0,0,0,1.47-.38,1.8,1.8,0,0,0,.46-1.4,5.33,5.33,0,0,0-.25-1.25c-.16-.55-.34-1.09-.52-1.64-.35-1-.74-2.09-1.08-3.15s-.57-2-.92-3c-.26-.72-.56-1.43-.81-2.15A11.37,11.37,0,0,1,32,34.88c.7,0,1.4,0,2.11.06h3.28c2.46,0,4.91,0,7.37.06,2.23,0,4.46.14,6.69.24l3,.16c1.17.07,2.34.12,3.51.21l2.59.21c.63,0,1.27.09,1.9.15l4.48.48,3.61.48c1,.12,1.89.27,2.84.42s2.15.31,3.22.52l2.3.45c.46.09.93.16,1.38.27l3.92,1c1,.24,1.93.56,2.89.86s1.92.56,2.85.92l3.49,1.34,3.27,1.53c.4.19.79.39,1.17.59.77.4,1.52.8,2.27,1.23a43.08,43.08,0,0,1,4.19,2.74,35.45,35.45,0,0,1,3.17,2.69,40,40,0,0,1,3,3.26l.69.91a1.2,1.2,0,0,0,1.64.41,1.19,1.19,0,0,0,.54-.72,1.22,1.22,0,0,0-.11-.9,4,4,0,0,0,0-.6,7,7,0,0,0-.09-.91l-.15-1.06a15,15,0,0,0-.32-1.65c-.28-1.09-.58-2.16-1-3.21a29.91,29.91,0,0,0-3.07-6.21A32.27,32.27,0,0,0,106.54,38c-.68-.82-1.35-1.66-2.07-2.45s-1.56-1.68-2.36-2.5a16.06,16.06,0,0,0-2.63-2.24c-.8-.53-1.63-1-2.45-1.51l.53-.05c1-.1,2.08-.23,3.12-.38l-.36.05,3.09-.43a32.65,32.65,0,0,0,3.42-.62c1-.25,2-.54,2.94-.84s2-.61,2.91-1l1.16-.46a14.13,14.13,0,0,0,1.44-.61,3.29,3.29,0,0,0,.46-.3,6.88,6.88,0,0,0,.73-.58,1.75,1.75,0,0,0,.37-2.11,1.51,1.51,0,0,0-.93-.67,1,1,0,0,0-.15-.57l-.16-.21a1.15,1.15,0,0,0-.48-.27l-1.68-.65-1.35-.46-2.27-.75-1.4-.65c-1.12-.52-2.28-.94-3.44-1.36s-2.11-.78-3.18-1.13a62.85,62.85,0,0,0-7.62-1.9c-.58-.17-1.16-.32-1.75-.47-2.25-.56-4.51-1-6.8-1.38l-3.3-.57c-1.06-.19-2.12-.39-3.18-.55-1.23-.19-2.47-.35-3.71-.5-1-.12-2.06-.21-3.09-.34-1.23-.14-2.47-.3-3.7-.46s-2.64-.31-4-.44c-2.23-.21-4.47-.23-6.71-.27-1.11,0-2.23,0-3.34,0s-2.25,0-3.37.13l-1.85.15c-.59,0-1.18.13-1.76.19-1,.12-2.11.26-3.16.41-1.28.19-2.56.38-3.83.65l-3.13.65-3.63.75c-.54,0-1.08,0-1.63,0s-.88,0-1.33.08c-.05-1.74.18-3.48,0-5.22-.06-.71-.13-1.42-.26-2.13a11,11,0,0,0-.49-2A3.91,3.91,0,0,0,29.45.73a2.76,2.76,0,0,0-.57-.45A2.3,2.3,0,0,0,27.73,0,2.48,2.48,0,0,0,27,.14m.31,4.5a23.52,23.52,0,0,1-.05,5.17c-.09.91-.21,1.82-.23,2.74,0,.43,0,.86-.06,1.3,0,.28-.05.58-.05.89A1.87,1.87,0,0,0,27.16,16a.38.38,0,0,0,.09.13l0,0a3.3,3.3,0,0,0,.35.46,2.2,2.2,0,0,0,.95.54,2,2,0,0,0,.69.06,1.54,1.54,0,0,0,.74,0c1.17-.29,2.34-.55,3.51-.8.32-.07.63-.15,1-.21L35.82,16c1.67-.3,3.36-.57,5-.84.92-.13,1.85-.26,2.78-.37s1.86-.21,2.79-.31c1.77-.19,3.55-.3,5.32-.39,1.5,0,3,.09,4.48.17,2.26.11,4.51.24,6.76.33,1.91.07,3.83.12,5.74.16l.94.09c.9.09,1.79.13,2.69.17s1.85.12,2.78.18l4.06.33,2.12.16c.61,0,1.22.13,1.83.2.94.12,1.87.25,2.81.41.41.08.83.18,1.25.28l1.48.34,3.06.72,1.36.34c.41.11.83.22,1.25.3l.82.17c.2,0,.41.06.61.09l.6.08.93.33c2.1.72,4.26,1.25,6.39,1.86l1.89.51c.53.12,1.07.21,1.58.38.91.37,1.83.73,2.73,1.13l1.07.43c-1.19.44-2.41.83-3.63,1.19-1,.3-2,.58-3.06.81s-2,.39-3,.62c-1.17.26-2.32.62-3.48.91-.56.14-1.13.26-1.7.36l-1,.18-.71.1-.47.09a1.51,1.51,0,0,0-.67.41,1,1,0,0,0-.27.57,1,1,0,0,0,.29.86,5.45,5.45,0,0,0,.47.37c.71.54,1.44,1.05,2.2,1.54l1.31.86q.54.35,1,.72A32.53,32.53,0,0,1,101,35.29c.87.91,1.74,1.82,2.53,2.81l-.19-.24c.82,1,1.69,2,2.53,3.07a23.05,23.05,0,0,1,1.83,2.68c.55,1,1,2,1.5,3a31.87,31.87,0,0,1,1.15,3.14c.16.53.31,1.07.43,1.61l-.69-.76a34,34,0,0,0-3.58-3.21,44.29,44.29,0,0,0-4.07-2.85c-1.4-.87-2.85-1.65-4.31-2.4-.48-.25-1-.47-1.45-.7l-1.9-.92c-.38-.18-.79-.32-1.19-.48l-2.28-.9-.88-.34a1.79,1.79,0,0,0-.32-.13l-1.5-.48-2.32-.74c-.31-.1-.62-.21-.93-.29l-4.06-1c-.3-.08-.61-.14-.92-.21l-2.39-.5c-.36-.07-.72-.16-1.08-.22l-1.94-.32c-1-.17-2-.35-3-.49l-4.29-.6c-1.2-.17-2.41-.28-3.62-.41-4.63-.52-9.28-.79-13.93-1-2.23-.11-4.46-.16-6.7-.19s-4.35,0-6.53,0-4,.12-6.07.3a1.16,1.16,0,0,0-.82.35,1.21,1.21,0,0,0-.33.68v.13a1.33,1.33,0,0,0-.14.19,1.47,1.47,0,0,0-.12,1c.11.57.21,1.13.34,1.69a12.17,12.17,0,0,0,.5,1.55c.37,1,.69,2,1,3.08s.65,2.16,1,3.23c.19.55.39,1.11.56,1.67l0,0c-.53-.26-1-.52-1.55-.8q-1.41-.77-2.79-1.59c-2-1.2-4-2.38-6-3.62s-3.91-2.52-5.88-3.77S12.86,34,11.06,32.77c-.73-.49-1.47-1-2.22-1.42S7.38,30.49,6.68,30s-1.36-1.1-2-1.67l-1.19-1c-.36-.32-.73-.63-1.06-1h0a2.17,2.17,0,0,1-.07-.24v-.23a4.44,4.44,0,0,1,.15-.52,8.35,8.35,0,0,1,.9-1.45c.47-.6.94-1.21,1.42-1.81s.85-1.08,1.31-1.6l.91-1c.27-.3.58-.57.87-.86.54-.53,1.12-1,1.7-1.51,1.7-1.34,3.45-2.63,5.19-3.93l2.71-2.05c.87-.66,1.72-1.34,2.6-2,1.37-1,2.79-2,4.18-3l1.92-1.36,1-.66,0,0c0,.18.08.36.11.55"/><path class="cls-1" d="M39.69,28.43a.67.67,0,0,0,.18-.45.65.65,0,0,0-.65-.64c-.95.1-1.9.18-2.86.23a.66.66,0,0,0-.64.57s0,.05,0,.08a.65.65,0,0,0,.65.64c1-.05,1.91-.12,2.87-.24a.73.73,0,0,0,.46-.19"/><path class="cls-1" d="M51.37,27.22a65.14,65.14,0,0,0-6.84.24,1,1,0,0,0-.7.3,1,1,0,0,0-.27.57s0,.08,0,.12a1,1,0,0,0,1,1l2-.14c.49,0,1-.06,1.47-.07,1.09,0,2.17,0,3.26.06,2.28.15,4.56.34,6.85.4a1.07,1.07,0,0,0,1.06-1.08,1.05,1.05,0,0,0-.32-.76,1.11,1.11,0,0,0-.75-.3l-6.78-.32"/></g></svg>
