<svg xmlns="http://www.w3.org/2000/svg" width="29mm" height="29mm" viewBox="0 0 82.2 82.2"><defs><style>.cls-1{fill:#303030;}</style></defs><title>arrow</title><g id="OBJECTS"><path class="cls-1" d="M80.59,3.74a1.24,1.24,0,0,0-.22-.18A.75.75,0,0,0,80,3.47h0a2.26,2.26,0,0,0-.29,0l-.17,0-.56.19h0a.88.88,0,0,0-.29.06l-.26.1L78.23,4a6.64,6.64,0,0,0-1.6.22,6.75,6.75,0,0,0-.9.29c-.34.13-.68.28-1,.44-.93.49-1.84,1-2.75,1.52s-1.6.91-2.38,1.4c-.44.29-.88.58-1.31.88L67,9.62l-1.21.88c-.36.26-.75.5-1.12.75-.2.13-.41.24-.62.36l-.56.34c-.43.23-.85.47-1.27.71q-1.34.77-2.64,1.56c-1.59,1-3,2.17-4.61,3.21l-.25.16a1.23,1.23,0,0,0-.34.26,1.55,1.55,0,0,0-.13.17.72.72,0,0,0-.38.5,4.24,4.24,0,0,0,0,.51v.37a.89.89,0,0,0,.21,1.09,1,1,0,0,0,.68.23c1,0,2,.05,3,.05.82,0,1.64,0,2.46,0,1.09.09,2.17.22,3.26.28.77.05,1.55.13,2.32.22l.27,0c-.15.3-.29.61-.43.92-.43.94-.84,1.9-1.28,2.84-.22.48-.42,1-.68,1.43l-1,1.83c-.19.35-.37.7-.58,1l-1.16,1.86-.69,1.1c-.18.29-.39.56-.59.84l-1.8,2.55c-.77.92-1.52,1.86-2.29,2.79-.63.77-1.32,1.5-2,2.23l-1.32,1.45c-.26.28-.54.54-.81.8-.85.84-1.69,1.68-2.56,2.48-.56.51-1.11,1-1.68,1.5s-1,.79-1.44,1.19c-.79.59-1.57,1.18-2.37,1.73l-1.39,1c-.49.32-1,.66-1.46,1s-.88.55-1.33.8l-1.6.9c-.54.31-1.12.57-1.67.86s-.83.4-1.25.59l-1.25.57c-1.75.73-3.5,1.47-5.3,2.08A33.15,33.15,0,0,1,22.26,59l-1.08.09A1.34,1.34,0,0,0,19.74,59l-.12.09-.5,0c-1.14,0-2.27-.09-3.4-.22a23.41,23.41,0,0,1-3.1-.66A26.53,26.53,0,0,1,9.49,57.1a66.17,66.17,0,0,1-6.6-3.38.92.92,0,0,0-.42-.12,1,1,0,0,0-.34-.07,1.07,1.07,0,0,0-.25,0,.93.93,0,0,0-.65,1.15c.64,1.92,1.19,3.86,1.75,5.8.26.89.52,1.78.86,2.65S4.6,65,5,65.86c.18.46.35.93.51,1.4s.26.88.39,1.31.4,1,.61,1.5.35.79.52,1.19a1.63,1.63,0,0,0-.07.3,1.33,1.33,0,0,0,0,.74,1.39,1.39,0,0,0,.35.61,1.52,1.52,0,0,0,.46.3,2,2,0,0,0,.08.22c.29.77.65,1.51,1,2.26.16.38.31.77.47,1.15a.46.46,0,0,0-.07.16.7.7,0,0,0,.48.85l.36.09a2.39,2.39,0,0,0,.35.28.88.88,0,0,0,.86,0l.75.17a13.23,13.23,0,0,0,2,.27c1,.08,2,.07,2.94.07a55.58,55.58,0,0,0,5.91-.32l.75-.09c.29,0,.56-.09.84-.14l.94-.19c.45-.09.89-.21,1.32-.32a39.34,39.34,0,0,0,8.13-3.22,54.65,54.65,0,0,0,7.22-4.63,59.32,59.32,0,0,0,6.5-5.67c.67-.68,1.35-1.36,2-2.08l1-1.17,2.48-2.78c.15-.17.28-.35.41-.52L55.72,56l1.19-1.53.52-.66c.72-1,1.45-2,2.18-3,.42-.58.84-1.15,1.23-1.75L63,45.72c.43-.66.82-1.33,1.22-2l1.07-1.79c.13-.22.27-.44.38-.67l1.65-3.21c.14-.29.27-.59.4-.89.27-.62.55-1.24.82-1.87.17-.36.31-.73.46-1.1s.39-1,.56-1.46l.55-1.56c.16-.46.29-.94.44-1.42s.22-.86.32-1.29c.06-.24.1-.49.14-.74s.08-.39.11-.59l.09-.62a.91.91,0,0,1,.11.16,11.85,11.85,0,0,1,.86,1.56c.34.7.68,1.4,1.08,2.07.18.29.35.59.55.87s.4.5.61.74a2.06,2.06,0,0,0,1.79.62l.44-.09a1.74,1.74,0,0,0,.75-.5l.27-.39a1.79,1.79,0,0,0,.18-.91v0c.33-.79.62-1.59.89-2.4s.56-1.72.82-2.6a24.16,24.16,0,0,0,.6-2.68,45.36,45.36,0,0,0,.62-5.7c.08-1.86.1-3.72.1-5.58,0-.91,0-1.83,0-2.74s0-1.71.09-2.57A12.16,12.16,0,0,0,81,5a2,2,0,0,0-.41-1.24m-59,57.41a.13.13,0,0,0,0-.06c.68,0,1.36-.15,2-.25l-.64.5c-.52.12-1.05.23-1.57.33a3.13,3.13,0,0,0,.16-.52M9.79,62.3c.17-.43.31-.86.44-1.3a3.63,3.63,0,0,0,.1-.66c0-.13,0-.27-.05-.4l-.09-.34a.65.65,0,0,0-.12-.25l.58.22a18.26,18.26,0,0,0,2.14.67,4.44,4.44,0,0,0-.55.42l-.47.38-.7.58c-.44.38-.89.75-1.33,1.15L9.5,63c.1-.23.2-.46.29-.7M6.7,60.59c.09-.81.2-1.63.26-2.46A.61.61,0,0,0,7,58c.77.36,1.54.71,2.33,1a.71.71,0,0,0-.28.09,3,3,0,0,0-.8.57l-.36.37-.65.67-.61.62.12-.76M5.51,58.13c0,.78-.16,1.55-.25,2.33,0,.23-.09.46-.13.69a.25.25,0,0,1,0-.07c-.23-.74-.44-1.48-.66-2.22S4,57.15,3.69,56.3c.74.4,1.48.8,2.24,1.18a.77.77,0,0,0-.42.65M7.1,63.76c-.17.34-.34.67-.52,1l-.45-1a1.86,1.86,0,0,0,.51-.29c.25-.21.47-.45.7-.68l.55-.56c-.25.53-.52,1.05-.79,1.57m1.48,4.71-.3.5c-.17-.33-.34-.67-.49-1a1.55,1.55,0,0,1-.08-.23h0a6.75,6.75,0,0,0,1-.69l.7-.58.86-.77-.34.57c-.45.74-.9,1.47-1.34,2.21m2.07,4.88a2.5,2.5,0,0,0-.21.35c-.11-.29-.23-.57-.35-.86,0,0,0-.09-.07-.14l.13-.09a15.78,15.78,0,0,0,1.47-1.36c.66-.64,1.28-1.33,1.9-2L13,70c-.55.82-1.09,1.67-1.67,2.47-.23.28-.45.56-.66.85m3.79,3.58-.61,0a11.21,11.21,0,0,1-1.53-.08l-.73-.11h0a2.74,2.74,0,0,0-.15-.4A1.52,1.52,0,0,0,12.63,76l1.13-1a1,1,0,0,0,.05.53,2.37,2.37,0,0,0,.31.64l.26.34a1.68,1.68,0,0,0,.74.43l.16,0-.84,0m.8-14.09a1.2,1.2,0,0,0,0,.37c-.36.38-.73.76-1.09,1.15l-.82.89c.1-.19.2-.37.29-.56.22-.41.43-.82.63-1.24s.37-.72.53-1.09a2.92,2.92,0,0,0,.29-.78A1.12,1.12,0,0,0,15,61a1.86,1.86,0,0,0-.1-.25l.44.07c.67.1,1.34.17,2,.22L17,61.4l-.56.58h0a1.2,1.2,0,0,0-1.13.86M24.6,75.91l-.9.2-.43.09L22,76.39c-1.43.15-2.87.27-4.31.38L16,76.86a1.65,1.65,0,0,0,.73-.43l1.66-1.36a1.85,1.85,0,0,0,.18.44,1.81,1.81,0,0,0,2.44.64c.36-.22.73-.42,1.07-.66l1.08-.76,1-.73a1.64,1.64,0,0,0,.22,1.07,1.78,1.78,0,0,0,.77.69c-.2,0-.4.11-.61.15m4.34-1.28.83-.59.51-.37a1.72,1.72,0,0,0,.14.4c-.49.2-1,.38-1.48.56m4.6-16.73-1.78,1.22-.06,0-1.92.55c-.41.12-.84.22-1.25.33l-.24.06a1.66,1.66,0,0,0-.12-.31l.77-.24c.51-.16,1-.36,1.5-.53,1.1-.4,2.18-.86,3.27-1.3l.25-.1-.42.28m5.54,3c-.59.59-1.19,1.18-1.75,1.81l-.14.09a1.66,1.66,0,0,0-.3-.22,1.86,1.86,0,0,0-1.33-.2l2.18-.94,1.49-.69-.15.15m5.2-2.28c-.73.46-1.47.9-2.21,1.34.27-.28.55-.55.83-.82l1.23-.52.31-.12-.16.12M43.09,57l-.18.17c-.84.36-1.67.75-2.5,1.12-1,.45-2,.93-3,1.4l.47-.29.85-.51q.64-.37,1.26-.78l1.86-1.19.48-.33c.74-.48,1.47-1,2.19-1.46l.68-.47a.67.67,0,0,0,.06.12.5.5,0,0,0,.08.12c-.75.69-1.48,1.4-2.21,2.1m9.79-5.63L51.37,53l-.95,1-.11.09L49,55a1.72,1.72,0,0,0-.64,0,3.69,3.69,0,0,0-1,.35l-.89.33,1-.94c.44-.35.86-.71,1.29-1.08s.91-.76,1.35-1.16c.81-.75,1.63-1.47,2.43-2.24l1.72-1.65.27-.25-.53.94c-.38.68-.78,1.36-1.19,2m2.79,1.53-1.24,1.54c.18-.26.36-.52.53-.79s.48-.5.71-.76h0m3.19-4.33a.61.61,0,0,0-.12-.16l.9-1v0c-.25.39-.51.78-.79,1.16m.62-11,0,0L59,38,59,38c.26-.32.54-.64.78-1l-.33.56m6.38-21.08L65,17.79H64c-1,0-2,.11-3.05.17h-.44c.89-.8,1.8-1.58,2.7-2.36l1.78-1.55-.38.52-1.23,1.67a1.77,1.77,0,0,0-.42.6.59.59,0,0,0,0,.37,1.78,1.78,0,0,0,.12.29.54.54,0,0,0,.74.19l.57-.34c.18-.12.35-.26.51-.39.34-.27.66-.57,1-.86l.64-.61.09-.08c-.23.35-.45.71-.67,1.06m1.36-3.42c-.43.43-.86.87-1.3,1.29l-.43.42.57-.79.49-.69a4.15,4.15,0,0,0,.24-.34c.57-.37,1.11-.77,1.66-1.17l-1.23,1.28m.27,2.83.23-.36,0,.05h0l-.28.3M68.9,29.45c-.13.42-.25.84-.4,1.25l0,.06a1,1,0,0,0-.41-.1h-.16l1.32-2.43c-.1.41-.2.81-.33,1.21m.25-4.55c.17-.32.33-.64.49-1l.13.21-.62.75m.9-6.71-.07,0,.46-.48,0-.05c-.14.19-.29.37-.44.55m1.56-6.9c-1.12,1.3-2.27,2.59-3.43,3.85a3.57,3.57,0,0,1,.12-.4,4,4,0,0,1,.35-.56l0,0,0,0a14.73,14.73,0,0,1,1.16-1.33l.64-.64.7-.69.36-.35.9-.82-.82,1m1.64-2.63c-.36.29-.7.6-1,.9l-.36.35-.68.66c-.24.23-.46.47-.69.7l.41-.6a.47.47,0,0,0,0-.57l2.28-1.42.4-.24-.27.22M74.5,21.05,74.43,21l.26-.25-.19.32m2.8-5.63-1,.86.27-.39.7-1c0,.19,0,.38,0,.57m.11-4.07-.08.07L76,12.86l1.14-1.64.36-.5c0,.21,0,.42,0,.63m.27-2.55v0l0-.15a.69.69,0,0,0,0,.13M78,7.25c-.08.27-.14.54-.2.82L77.65,8a.83.83,0,0,0-.78.21c-.27.25-.53.49-.78.76l-.64.66c-.34.36-.67.73-1,1.1l-.78.85c.6-.81,1.2-1.62,1.81-2.42l1.51-2a.54.54,0,0,0,.08-.43l.32-.27L78,6.3l.3,0c-.09.33-.2.65-.29,1"/><path class="cls-1" d="M52.14,35.8a.88.88,0,0,0,.56-.27A8,8,0,0,0,53.93,34c.36-.53.69-1.08,1-1.61l.09-.14a.82.82,0,0,0,.09-.43.89.89,0,0,0-.28-.57.86.86,0,0,0-.55-.21h-.06a.8.8,0,0,0-.57.28c-.42.62-.81,1.25-1.22,1.87l-.41.57c-.19.24-.39.46-.61.69a.83.83,0,0,0,.68,1.37"/><path class="cls-1" d="M48.28,40.59a1.25,1.25,0,0,0,.49-.72A1.17,1.17,0,0,0,48.6,39a1.13,1.13,0,0,0-.72-.48l-.22,0a1,1,0,0,0-.61.18l-1.87,1.6a1.18,1.18,0,0,0-.21.18l-2.2,1.92c-.83.69-1.68,1.35-2.56,2s-2,1.37-3,2-1.93,1.18-2.93,1.71c-.55.28-1.09.57-1.62.88s-1,.6-1.45.91a1.28,1.28,0,0,0-.36,1.76,1.33,1.33,0,0,0,.82.55,1.41,1.41,0,0,0,.94-.19c1.13-.61,2.27-1.21,3.37-1.87s2.36-1.49,3.51-2.28,2.09-1.51,3.12-2.3,2.06-1.78,3.06-2.69l.92-.82.29-.24.22-.19,0,0-.22.19,1.39-1.19m-1.84,1.58.06-.05,0,0-.11.09"/></g></svg>
