<svg id="svg2" xmlns="http://www.w3.org/2000/svg" width="81" height="75" viewBox="0 0 81 75"><defs><style>.cls-1{fill:#1d1d1d;}</style></defs><title>vector</title><path class="cls-1" d="M80.76,48.24c-8.06-6.58-16.7-11.67-25.22-17.73a25.08,25.08,0,0,1-3.2-1.67c1.66-1.08,3.08-1.95,4-2.51l.49-.35a40.45,40.45,0,0,0,8.81-6.93c.89-1.24,1.72-2.58,2.57-3.9-.76,0-1.49.07-2.14,0,1.24-.76,2.49-1.52,2.73-2.18,2.05-2.54,0-2.53-1.92-3.18-1.1-.1-.7-1.62-2.22-1.46l2.08-1.27c-.26-.61-2.32,1.93-2.34.66C65.37,7.46,66,6.55,66.85,6c-.77-.55-3,1.58-3.35.77.33-.45,2.94-.51,2.5-1.52-.09-.21-.92.3-1.34.56,2.32-1.93,3.12-3.71.19-3.19a19.14,19.14,0,0,0,2.94-1.53h0c-.44.25-1.28.54-1.68.78L67.55,1l-.5-.22a5,5,0,0,0-1.22.5l1-.59A8.31,8.31,0,0,0,65.43.38c-1.51.16-3.16,0-3.78.39-5.2,2.82-10.34,5.77-15.3,9,.22.34.7.51.4.93-1.08,1.17-2.86.73-4,1.92l.27.6-3.66,1.31c-1.37,1-2.72,2.09-4,3.18-3.48-2.43-6.44-4.6-7.93-5.83l-.48-.3A34.12,34.12,0,0,0,18,6.34c-1.38-.31-2.84-.54-4.29-.78a18.86,18.86,0,0,1,.71,1.9c-1.07-.82-2.13-1.64-2.8-1.6-2.9-.85-2.25,1-2.26,3,.25,1-1.23,1.25-.62,2.54L7,10c-.46.47,2.44,1.32,1.32,1.84-.56-.71-1.58-.94-2.29-1.48-.26.9,2.33,2.06,1.72,2.69-.51-.11-1.37-2.42-2.14-1.63-.15.15.56.7.92,1C4.07,11.06,2.23,11,3.6,13.45c-.69-.53-1.43-1.62-2.27-2v0c.36.3.88.94,1.21,1.2l-1.25-1a4.71,4.71,0,0,0,0,.53,4.15,4.15,0,0,0,.82.9l-.83-.63a8.83,8.83,0,0,0,.14,1.34C2,15.1,2.36,16.63,2.9,17,7,20.6,11.26,24,15.64,27.24c.24-.33.24-.82.71-.71,1.38.5,1.52,2.26,2.9,2.77l.46-.48c.73.86,1.45,1.82,2.22,2.74l.34.22A101.79,101.79,0,0,0,15.51,42a47.47,47.47,0,0,1-1.93,4.73A56.47,56.47,0,0,1,9.06,52.5c1,.57,1,2,.95,3.5s-.09,2.83,1.15,3.16c-1,1.16-2.72,2.78-2.38,3.33a4.84,4.84,0,0,1,.85,3.27,5.68,5.68,0,0,1-.75,2.32A9.93,9.93,0,0,1,6.6,70.86a10.26,10.26,0,0,1-1.65.9c-.63.25-1.31.45-1.92.63a10.6,10.6,0,0,0-2.71.8.3.3,0,0,0,.06.49,3.13,3.13,0,0,0,1,.24c.85.11,1.76.19,1.18.7a27,27,0,0,0,11.18-6.51,49.85,49.85,0,0,0,6.55-7.76c1.76-2.47,3.18-4.72,4.61-6.59a51.54,51.54,0,0,1,4.76-5.6c.63-1.29,3.75-4.77,8-8.48C42,41.48,46.38,43.27,51,45.24a23,23,0,0,1,4.35,1.27,46,46,0,0,1,5.34,4.1c1.09-2.06,5.75-.14,6.3-2.61,1.06.82,2.67,2,3.13,1.57,1.38-1.41,3.53-2.66,7.13-1.55,1.29.58,2.57,2.49,3.2,2.45C81.45,50.41,79.77,48.3,80.76,48.24Z"/></svg>
