<svg id="svg2" xmlns="http://www.w3.org/2000/svg" width="43" height="22.56" viewBox="0 0 43 22.56"><defs><style>.cls-1{fill:#fff;}</style></defs><title>vector</title><path class="cls-1" d="M2.87,4.12l-.74,0,.13.12a3.43,3.43,0,0,0,.56.06H2.33a2.74,2.74,0,0,0,.42.25A8,8,0,0,0,4.2,5c2.55.13,5.1.22,7.64.24,0-.1-.13-.2.08-.25.66-.09,1.2.25,1.86.15a1,1,0,0,1,.05-.16l1.59.23c1,0,2-.06,3-.11,0-.06,0-.12.06-.14a14.8,14.8,0,0,1,1.59,0l.26,0a.19.19,0,0,0,.09-.12c.27,0,.51,0,.73,0,2.92-.32,5.88-.7,9.09-1.07a18.73,18.73,0,0,1,2-.37c1-.06,2.2,0,3.15.06-.15-.57,2.16-.85,1.7-1.44.63,0,1.57,0,1.62-.13.15-.49.63-1,2.31-1.35.65-.06,1.66.14,1.89,0s-.85-.34-.49-.5C37.58-.11,32.89.11,28,.1,26.32.36,15.07.47,12.18.36h-.26A31,31,0,0,0,7.09.59c-.61.14-1.23.31-1.85.46.29.1.55.19.78.29a5.18,5.18,0,0,0-1.5.08c-1.34.24-.58.53-.06.92.37.18-.14.44.45.62l-1.05,0c0,.17,1.29-.08,1,.19a11,11,0,0,0-1.28,0c.15.22,1.46.08,1.39.3-.22,0-1.18-.3-1.26,0,0,.06.4.07.61.07-1.29.08-2,.34-.82.64-.41,0-1-.12-1.42-.09h0Z"/><path class="cls-1" d="M42.44,8.75c-4.86-.18-9.55,0-14.45,0C26.32,9,15.07,9.15,12.18,9h-.26a29.81,29.81,0,0,0-4.83.24c-.61.13-1.23.3-1.85.46.29.09.55.19.78.28a5.18,5.18,0,0,0-1.5.08c-1.34.24-.58.53-.06.93.37.17-.14.43.45.61l-1.05,0c0,.16,1.29-.09,1,.18a11,11,0,0,0-1.28,0c.15.22,1.46.08,1.39.3-.22,0-1.18-.3-1.26,0,0,.06.4.07.61.07-1.29.08-2,.34-.82.64-.41,0-1-.12-1.42-.09h0l.79.07-.74,0,.13.12a3.43,3.43,0,0,0,.56.06H2.33a2.75,2.75,0,0,0,.42.26,8.66,8.66,0,0,0,1.45.43c2.55.13,5.1.22,7.64.24,0-.1-.13-.2.08-.25.66-.09,1.2.25,1.86.15a1,1,0,0,1,.05-.16l1.59.23c1,0,2-.06,3-.11,0-.06,0-.12.06-.14.42,0,1,0,1.59,0l.26,0a.19.19,0,0,0,.09-.12c.27,0,.51,0,.73,0,2.92-.32,5.88-.69,9.09-1.07a18.73,18.73,0,0,1,2-.37c1-.06,2.2,0,3.15.07-.15-.58,2.16-.86,1.7-1.45.63,0,1.57,0,1.62-.13.15-.49.63-1.05,2.31-1.34.65-.07,1.66.13,1.89,0S42.08,8.91,42.44,8.75Z"/><path class="cls-1" d="M40.37,17.43c-4.87-.17-9.56,0-14.46,0-1.67.26-12.92.37-15.81.26H9.84A29.63,29.63,0,0,0,5,18c-.62.13-1.24.3-1.86.46.29.09.56.19.79.28a5.29,5.29,0,0,0-1.51.08c-1.34.25-.58.53-.06.93.37.17-.13.43.45.61l-1,0c-.05.16,1.29-.09,1,.18a11,11,0,0,0-1.28,0c.15.22,1.46.08,1.39.3-.22.05-1.18-.3-1.26,0,0,.05.41.06.62.06-1.3.09-2,.34-.83.64A13.22,13.22,0,0,0,0,21.41H0l.79.07-.74,0,.13.12a3.55,3.55,0,0,0,.56.06H.25a4.28,4.28,0,0,0,.42.26,9.72,9.72,0,0,0,1.46.44c2.54.12,5.09.22,7.63.23,0-.1-.13-.2.08-.25.67-.09,1.2.25,1.86.15,0-.05,0-.11.05-.16l1.59.24q1.52,0,3-.12c0-.06,0-.12.07-.14.41,0,1,0,1.58,0l.26,0a.18.18,0,0,0,.1-.12c.26,0,.5,0,.73,0,2.91-.33,5.88-.7,9.09-1.08a19,19,0,0,1,2-.37c1-.06,2.21.05,3.15.07-.14-.58,2.16-.86,1.7-1.44.63,0,1.58,0,1.63-.14.14-.49.63-1,2.3-1.34.65-.07,1.66.13,1.89,0S40,17.59,40.37,17.43Z"/></svg>
